<?xml version="1.0" standalone="no"?>
<!DOCTYPE svg PUBLIC "-//W3C//DTD SVG 20010904//EN"
 "http://www.w3.org/TR/2001/REC-SVG-20010904/DTD/svg10.dtd">
<svg version="1.0" xmlns="http://www.w3.org/2000/svg"
 width="1024.000000pt" height="1024.000000pt" viewBox="0 0 1024.000000 1024.000000"
 preserveAspectRatio="xMidYMid meet">
<metadata>
Created by potrace 1.14, written by Peter Selinger 2001-2017
</metadata>
<g transform="translate(0.000000,1024.000000) scale(0.100000,-0.100000)"
fill="#000000" stroke="none">
<path d="M4885 8782 c-1 -2 -40 -5 -86 -8 -100 -6 -110 -7 -126 -17 -8 -5 -13
-3 -13 3 0 6 -4 9 -8 6 -13 -8 -74 -18 -104 -18 -16 1 -28 -2 -28 -6 0 -4 -15
-7 -33 -8 -30 -1 -84 -9 -131 -19 -12 -3 -32 -7 -46 -9 -14 -3 -36 -8 -50 -11
-14 -4 -36 -8 -50 -10 -14 -2 -25 -4 -25 -5 0 -2 -29 -9 -55 -14 -8 -2 -22 -6
-30 -9 -8 -3 -28 -9 -45 -13 -16 -4 -36 -9 -42 -11 -7 -1 -19 -4 -25 -6 -7 -2
-40 -12 -73 -22 -72 -22 -86 -26 -102 -27 -7 -1 -13 -5 -13 -10 0 -4 -3 -7 -7
-6 -5 0 -15 -1 -23 -5 -38 -14 -116 -42 -120 -43 -3 0 -22 -8 -44 -17 -21 -9
-42 -17 -47 -17 -5 0 -9 -5 -9 -11 0 -5 -4 -8 -9 -4 -5 3 -12 1 -16 -5 -3 -5
-15 -10 -26 -10 -12 0 -17 -4 -13 -11 4 -7 1 -10 -7 -7 -7 2 -33 -6 -58 -18
-24 -13 -48 -21 -53 -18 -5 3 -7 0 -6 -8 2 -7 -3 -12 -9 -11 -7 2 -13 -2 -13
-9 0 -6 -3 -9 -6 -5 -3 3 -25 -5 -47 -19 -23 -13 -62 -34 -87 -46 -25 -13 -51
-30 -58 -38 -12 -13 -13 -13 -6 0 4 8 -3 5 -15 -7 -12 -13 -28 -23 -36 -23 -8
0 -15 -4 -15 -9 0 -5 -13 -14 -30 -21 -16 -7 -30 -17 -30 -22 0 -5 -4 -7 -9
-4 -5 3 -11 -1 -15 -9 -3 -8 -10 -15 -16 -15 -6 0 -23 -11 -38 -25 -15 -14
-33 -25 -40 -25 -7 0 -10 -4 -7 -10 3 -5 1 -10 -4 -10 -21 0 -26 -3 -39 -21
-7 -11 -25 -26 -40 -33 -15 -8 -44 -30 -64 -49 -20 -19 -39 -33 -41 -30 -3 2
-14 -8 -26 -23 -11 -15 -21 -24 -21 -20 0 4 -6 1 -14 -6 -8 -7 -12 -16 -9 -20
2 -5 -5 -8 -16 -8 -12 0 -21 -5 -21 -10 0 -10 -88 -99 -93 -94 -1 1 -13 -13
-27 -32 -14 -18 -31 -34 -39 -34 -8 0 -12 -3 -8 -6 3 -4 -8 -21 -26 -39 -43
-44 -77 -85 -70 -85 3 0 -6 -12 -20 -26 -15 -15 -24 -31 -20 -38 3 -6 3 -8 -1
-4 -9 8 -71 -69 -81 -101 -3 -12 -10 -19 -14 -16 -4 2 -14 -8 -22 -23 -8 -15
-18 -30 -24 -34 -5 -4 -6 -8 -2 -8 5 0 -1 -13 -12 -29 -11 -15 -18 -31 -14
-35 3 -3 1 -6 -5 -6 -10 0 -16 -10 -65 -102 -10 -21 -23 -38 -28 -38 -4 0 -6
-7 -3 -15 4 -8 1 -15 -7 -15 -7 0 -9 -3 -6 -7 4 -3 2 -12 -4 -20 -6 -7 -9 -13
-5 -13 3 0 -3 -9 -14 -20 -12 -12 -18 -25 -15 -30 4 -6 1 -10 -4 -10 -6 0 -10
-3 -9 -7 1 -5 -9 -30 -21 -58 -38 -84 -44 -100 -42 -109 1 -5 -3 -12 -8 -16
-6 -3 -13 -17 -15 -30 -2 -14 -5 -26 -7 -27 -1 -2 -3 -7 -4 -13 -1 -5 -3 -11
-5 -12 -2 -4 -11 -41 -12 -55 -1 -7 -4 -13 -8 -13 -3 0 -6 -8 -7 -17 -3 -41
-8 -63 -13 -63 -3 0 -6 -18 -5 -40 1 -22 -1 -40 -4 -40 -9 0 -14 -84 -12 -210
1 -137 2 -140 14 -140 6 0 8 -3 4 -6 -7 -7 19 -61 39 -81 7 -8 29 -20 49 -28
19 -9 35 -20 35 -26 0 -5 -4 -7 -10 -4 -5 3 -10 -1 -10 -9 0 -9 -6 -16 -13
-16 -12 0 -40 -26 -45 -42 -1 -5 -11 -24 -22 -44 -11 -19 -18 -39 -15 -45 4
-5 1 -9 -5 -9 -6 0 -8 -4 -5 -10 3 -5 2 -10 -2 -10 -5 0 -10 -10 -10 -22 -1
-13 -4 -41 -8 -63 -4 -22 -8 -49 -10 -60 -1 -11 -3 -23 -4 -26 0 -4 -18 -6
-38 -5 -21 1 -43 -2 -50 -6 -6 -5 -14 -5 -18 2 -3 6 -12 7 -18 3 -7 -4 -21 -9
-32 -10 -11 -2 -32 -5 -46 -7 -25 -4 -74 -42 -74 -58 0 -3 -3 -9 -6 -13 -4 -3
-1 -37 7 -76 16 -84 52 -139 112 -171 39 -19 58 -22 172 -22 91 0 133 4 144
13 12 10 16 10 16 2 0 -7 5 -9 13 -4 20 12 31 11 45 -3 11 -12 10 -15 -2 -20
-11 -4 -15 -20 -13 -60 1 -30 -2 -54 -6 -54 -4 0 -3 -9 3 -19 7 -14 7 -22 0
-26 -6 -4 -8 -10 -5 -15 7 -12 8 -211 0 -218 -3 -4 -26 1 -50 9 -25 9 -42 12
-38 6 4 -6 1 -7 -8 -1 -23 14 -154 22 -166 10 -3 -3 -12 -1 -20 5 -10 9 -13 8
-13 0 0 -7 -5 -9 -10 -6 -6 4 -18 1 -27 -7 -14 -11 -16 -11 -8 1 8 14 -48 -13
-71 -35 -17 -15 -53 -92 -46 -99 3 -3 7 -20 9 -38 5 -54 6 -57 15 -57 4 0 8
-5 8 -11 0 -15 56 -69 70 -69 6 0 8 -4 5 -10 -3 -5 -3 -10 2 -10 4 0 22 -12
38 -28 17 -15 37 -28 45 -30 8 -2 22 -9 30 -17 8 -7 23 -11 32 -10 10 2 18 0
18 -4 0 -7 124 -31 164 -31 20 0 23 -5 23 -37 0 -66 12 -127 28 -136 8 -4 19
-16 25 -27 11 -20 3 -53 -10 -45 -5 3 -14 0 -22 -7 -7 -7 -19 -14 -26 -16 -45
-9 -101 -73 -107 -123 -3 -25 3 -38 33 -68 20 -21 44 -40 52 -44 12 -4 11 -6
-3 -6 -10 -1 -15 -6 -12 -11 3 -6 -1 -13 -9 -16 -9 -3 -16 -12 -16 -18 0 -7
-9 -22 -20 -34 -11 -12 -20 -26 -20 -32 0 -5 -4 -10 -9 -10 -8 0 -24 -37 -22
-52 1 -5 -4 -8 -9 -8 -6 0 -10 -7 -10 -16 0 -8 -5 -25 -12 -37 -11 -22 -17
-50 -20 -114 -1 -18 -6 -33 -10 -33 -5 0 -4 -9 2 -20 6 -11 7 -20 2 -20 -5 0
-8 -12 -5 -27 2 -16 6 -55 9 -88 3 -33 9 -64 15 -70 5 -5 9 -17 9 -26 0 -21
40 -112 52 -120 5 -3 9 -10 9 -15 0 -5 10 -20 21 -34 12 -14 21 -27 19 -28 -3
-4 63 -74 106 -112 71 -63 86 -74 78 -60 -4 8 1 6 12 -5 21 -21 21 -28 -1 -31
-28 -4 -57 -16 -52 -21 3 -3 -2 -12 -10 -20 -8 -8 -12 -18 -9 -23 3 -4 -2 -11
-11 -14 -10 -4 -14 -14 -11 -26 3 -11 1 -20 -3 -20 -4 0 -7 -14 -6 -31 1 -16
-1 -32 -6 -35 -5 -3 -5 -11 -1 -17 4 -7 8 -28 10 -47 4 -49 24 -130 32 -130 4
0 8 -9 9 -20 4 -44 6 -50 14 -50 5 0 7 -4 3 -9 -3 -5 1 -15 8 -23 7 -7 14 -17
15 -23 5 -23 27 -65 35 -65 5 0 5 -4 2 -10 -3 -5 -1 -10 4 -10 6 0 11 -9 11
-20 0 -11 5 -20 10 -20 6 0 14 -8 17 -17 9 -22 44 -64 109 -128 75 -74 174
-153 174 -139 0 4 7 -1 15 -12 8 -10 15 -15 15 -10 0 6 7 1 15 -10 8 -10 15
-15 15 -11 0 5 13 -1 30 -13 16 -12 30 -18 30 -14 0 4 9 -1 20 -11 11 -10 20
-15 20 -10 0 4 6 2 13 -4 8 -6 17 -8 20 -4 4 3 7 2 7 -4 0 -5 6 -10 13 -11 19
-1 38 -7 95 -26 29 -10 56 -15 59 -12 3 3 12 1 20 -5 7 -6 13 -9 13 -6 0 3 15
1 33 -5 17 -5 49 -9 69 -9 20 0 40 -4 43 -9 4 -7 13 -7 26 0 10 6 19 7 19 3 0
-7 80 -13 240 -17 30 -1 61 -5 68 -9 6 -5 12 -4 12 1 0 10 56 9 66 -1 4 -3 14
-2 23 3 10 5 23 5 30 1 7 -5 28 -5 47 -1 19 4 34 5 34 1 0 -4 15 -6 33 -4 42
5 47 5 80 0 15 -2 27 0 27 5 0 5 5 6 12 2 16 -10 198 -12 204 -2 3 5 11 5 17
1 17 -10 157 -10 157 1 0 5 6 4 13 -1 14 -10 108 -10 125 1 7 4 12 4 12 -1 0
-4 27 -8 60 -8 33 0 60 4 60 8 0 5 6 5 12 1 18 -11 48 -12 54 -2 3 4 10 5 16
2 16 -10 68 -11 68 -1 0 5 5 5 12 1 16 -10 58 -12 58 -2 0 4 7 5 17 1 22 -9
77 -8 91 1 7 4 12 3 12 -2 0 -9 42 -8 57 1 5 3 15 2 23 -3 9 -5 19 -5 27 2 8
6 13 7 13 1 0 -6 12 -8 28 -6 15 2 32 4 37 3 94 -5 122 -4 133 3 7 6 12 6 12
0 0 -6 12 -8 28 -6 15 2 48 3 75 3 44 0 59 0 90 0 6 0 23 -1 37 -3 14 -2 33 1
43 5 9 5 17 5 17 0 0 -10 30 -9 48 2 6 4 12 4 12 -1 0 -4 22 -8 50 -8 27 0 50
4 50 8 0 5 6 5 12 1 18 -11 48 -12 54 -2 3 4 10 5 16 2 16 -10 78 -10 78 0 0
5 6 5 13 0 15 -11 38 -11 55 -1 6 5 12 4 12 -1 0 -10 30 -9 48 2 6 4 12 3 12
-2 0 -5 12 -7 28 -5 15 2 32 4 37 3 6 0 33 -1 60 -3 28 -2 58 0 67 5 9 4 19 4
22 -1 3 -4 18 -6 33 -4 27 4 56 4 98 -1 11 -1 26 2 33 7 6 5 12 6 12 1 0 -5
32 -9 70 -9 39 0 70 4 70 9 0 5 6 4 13 -1 10 -7 72 -8 162 -3 6 1 22 -1 38 -3
15 -2 30 0 33 4 3 6 49 -8 49 -14 0 0 10 5 23 12 12 6 22 8 22 4 0 -9 98 -9
106 0 3 3 18 2 32 -3 15 -4 37 -3 50 1 14 5 22 5 22 -2 0 -6 5 -7 11 -3 6 3
47 8 92 10 122 5 237 13 282 20 22 4 52 7 68 8 15 0 27 4 27 7 0 3 6 6 13 6
25 1 85 13 110 22 14 5 28 7 31 4 3 -4 6 -1 6 6 0 7 5 9 10 6 6 -3 16 -3 23 2
6 4 17 8 24 9 7 1 27 9 44 18 18 9 38 16 45 16 7 0 14 4 16 9 2 5 10 11 18 13
8 2 30 13 49 25 19 12 39 19 44 16 6 -3 7 -1 3 5 -4 7 -2 12 4 12 6 0 17 6 25
13 7 6 41 34 76 61 35 28 82 71 104 96 22 26 43 45 48 43 4 -2 7 3 7 11 0 9 5
16 12 16 6 0 8 3 5 6 -4 4 1 14 11 23 19 16 36 50 34 64 -1 4 2 7 7 7 8 0 23
31 24 50 0 3 7 11 14 18 7 7 13 22 13 33 0 10 5 19 11 19 5 0 8 4 4 9 -3 5 2
17 11 25 11 12 12 16 2 16 -11 0 -11 2 0 9 7 4 12 14 10 22 -2 8 2 13 9 12 7
-2 10 4 7 12 -3 8 -2 20 2 26 19 31 21 196 3 231 -14 28 -51 64 -61 61 -5 -2
-8 2 -8 7 0 6 -9 10 -20 10 -11 0 -20 5 -20 11 0 5 -4 8 -9 4 -5 -3 -12 -1
-15 4 -4 5 3 12 14 16 11 3 20 11 20 16 0 6 5 7 10 4 6 -3 10 -1 10 5 0 6 5 8
10 5 6 -3 10 -1 10 4 0 6 7 11 15 11 8 0 15 5 15 10 0 6 11 16 25 22 14 6 25
17 25 25 0 7 3 12 8 10 8 -2 52 39 52 51 0 4 12 21 28 37 15 17 28 37 30 44 1
7 9 20 17 28 13 13 20 34 16 56 0 4 4 7 9 7 6 0 10 9 10 20 0 11 4 20 9 20 5
0 7 9 4 20 -3 11 -1 20 3 20 21 0 24 278 4 330 -1 3 -3 10 -4 15 -6 42 -39
125 -46 120 -6 -4 -10 3 -10 14 0 12 -4 21 -10 21 -5 0 -10 4 -10 10 0 9 -6
18 -52 72 -25 29 -23 35 13 42 17 3 28 10 25 15 -3 5 0 11 8 14 8 3 13 16 12
31 -2 14 1 23 5 20 11 -6 12 20 2 30 -5 4 -8 11 -8 15 0 4 -8 15 -17 25 -10
10 -18 15 -18 11 0 -4 -7 1 -16 9 -8 9 -27 19 -42 22 -15 4 -34 12 -42 18 -8
7 -27 18 -42 26 -36 18 -35 26 5 34 17 3 43 9 57 12 14 3 45 7 70 9 25 2 59 7
75 11 17 3 38 7 48 8 10 0 21 7 26 14 5 8 10 13 12 12 13 -6 82 15 86 26 3 8
11 14 19 14 8 0 14 5 14 11 0 5 5 7 10 4 6 -3 10 -1 10 5 0 6 11 22 25 36 14
14 25 31 25 39 0 8 5 15 11 15 5 0 8 4 4 9 -3 5 -1 12 4 15 5 3 9 31 9 62 -1
51 -4 59 -42 98 -37 38 -48 46 -81 57 -5 1 -19 11 -29 21 -11 10 -26 18 -33
18 -7 0 -13 4 -13 10 0 5 -3 9 -7 8 -5 -1 -29 8 -55 20 -26 12 -52 22 -58 22
-6 0 -8 4 -5 10 3 5 0 7 -8 4 -7 -2 -27 1 -43 7 -16 7 -38 14 -49 16 -11 3
-27 6 -35 8 -8 2 -26 4 -40 5 -20 0 -22 3 -10 10 9 5 22 10 30 12 28 6 41 28
45 75 2 26 4 50 5 53 1 3 1 10 0 15 -1 6 -4 64 -5 130 -1 66 -4 125 -5 130 -6
26 2 32 38 27 80 -12 280 -7 309 8 69 34 125 128 130 219 2 48 0 56 -26 80
-30 28 -49 32 -192 35 -63 1 -67 2 -63 24 3 12 1 22 -4 22 -4 0 -7 15 -7 33 1
17 -5 58 -12 90 -7 32 -11 63 -7 68 3 5 -3 9 -13 9 -15 0 -16 2 -3 10 10 6 11
10 3 10 -7 0 -13 7 -13 15 0 8 -18 32 -41 55 -37 36 -40 45 -16 41 4 -1 13 10
19 24 6 14 15 25 19 25 7 0 36 55 44 83 2 4 3 8 5 10 6 8 12 51 14 112 1 39 5
76 9 82 4 6 3 14 -2 18 -5 3 -8 14 -6 25 2 11 1 22 -3 24 -4 2 -7 20 -6 40 1
20 -1 36 -5 36 -4 0 -7 14 -6 30 1 17 -2 30 -6 30 -5 0 -6 7 -3 15 3 8 2 20
-2 27 -5 7 -10 24 -12 38 -2 13 -8 30 -14 37 -8 10 -7 13 3 13 9 0 10 3 4 8
-5 4 -16 18 -23 31 -11 19 -11 22 0 15 10 -6 11 -5 1 7 -6 8 -11 16 -11 19 0
3 -5 16 -10 30 -20 48 -25 65 -24 73 1 4 -3 7 -9 7 -5 0 -7 5 -3 11 3 6 1 15
-5 19 -7 4 -13 17 -14 28 -1 12 -5 22 -10 22 -4 0 -5 5 -2 10 3 6 1 10 -4 10
-6 0 -11 5 -11 12 0 6 -8 20 -17 31 -10 11 -12 17 -5 13 8 -5 2 10 -12 32 -14
22 -22 43 -19 46 4 3 1 6 -5 6 -7 0 -12 9 -12 21 0 11 -4 17 -10 14 -5 -3 -10
1 -10 10 0 20 -45 87 -53 79 -3 -3 -3 3 0 15 3 14 0 23 -11 27 -9 3 -16 12
-16 20 0 8 -5 14 -12 14 -6 0 -9 3 -5 6 3 4 1 12 -6 20 -28 31 -37 44 -37 51
0 4 -14 24 -30 43 -16 19 -30 40 -30 45 0 6 -9 17 -20 25 -11 8 -20 20 -20 27
0 6 -6 16 -13 20 -8 4 -17 16 -20 26 -4 11 -16 21 -27 24 -11 3 -18 9 -15 12
2 4 -16 29 -40 55 -25 26 -45 52 -45 58 0 6 -3 8 -7 5 -3 -4 -15 5 -25 20 -10
16 -18 24 -18 19 0 -5 -16 10 -36 33 -20 22 -41 38 -48 34 -6 -3 -8 -2 -3 2
10 11 -93 106 -106 98 -6 -3 -7 -2 -4 4 3 5 -6 18 -20 29 -14 10 -42 34 -62
51 -20 18 -42 33 -49 33 -7 0 -10 5 -7 10 3 6 1 10 -5 10 -9 0 -71 44 -127 90
-7 6 -17 10 -23 10 -5 0 -10 5 -10 11 0 6 -7 8 -16 5 -8 -3 -13 -2 -10 2 3 5
-13 19 -36 33 -22 13 -48 31 -57 40 -10 8 -23 13 -31 11 -7 -3 -10 0 -7 6 6 9
-27 26 -45 23 -5 -1 -8 4 -8 10 0 5 -4 7 -10 4 -5 -3 -10 -2 -10 3 0 5 -21 20
-47 33 -27 13 -50 26 -53 29 -3 4 -21 12 -40 20 -19 7 -43 20 -54 29 -10 9
-20 15 -22 14 -8 -3 -44 10 -44 16 0 4 -6 8 -12 8 -7 0 -44 15 -82 32 -39 18
-78 33 -88 34 -10 1 -18 4 -18 8 0 3 -19 12 -42 19 -24 8 -49 18 -55 23 -7 5
-13 7 -13 4 0 -4 -21 3 -46 13 -25 11 -50 18 -54 15 -5 -3 -10 -1 -12 4 -1 6
-14 12 -28 15 -14 3 -74 19 -134 35 -61 17 -112 28 -114 26 -3 -3 -10 -1 -16
4 -6 5 -28 12 -48 15 -21 3 -58 10 -83 16 -26 6 -50 8 -55 5 -4 -3 -10 -1 -12
5 -1 5 -30 12 -63 15 -33 2 -60 5 -60 5 0 3 -45 11 -90 16 -27 3 -61 6 -75 8
-112 15 -633 29 -645 18z"/>
</g>
</svg>
